<svg width="105" height="79" fill="none" xmlns="http://www.w3.org/2000/svg"><path d="M0 79 19.77 0h15.289L28.82 25.28h22.845L57.904 0h15.288l-19.77 79H38.135l9.929-39.5H25.218L15.288 79H0Z" fill="#fff"/><path d="M39.98 79 59.572 0h22.494c4.335 0 8.23.966 11.686 2.897 3.456 1.872 6.18 4.447 8.172 7.724 2.05 3.277 3.075 6.964 3.075 11.06 0 3.219-.644 6.35-1.933 9.392-1.289 2.985-3.075 5.706-5.36 8.164a31.34 31.34 0 0 1-7.732 6.056L101.925 79H85.67L75.564 48.98H62.736L55.268 79H39.979Zm26.007-43.187H76.18c2.46 0 4.715-.556 6.766-1.667 2.05-1.112 3.66-2.605 4.832-4.477 1.23-1.873 1.845-3.92 1.845-6.145 0-2.808-.995-5.061-2.987-6.758s-4.628-2.546-7.908-2.546h-7.38l-5.36 21.593Z" fill="#fff"/></svg>