<svg width="30" height="30" fill="none" xmlns="http://www.w3.org/2000/svg"><path d="M24.688 18.813c-.463-.875-1.038-1.726-1.476-2.575a5.638 5.638 0 0 1-.712-2.488v-2.238a7.937 7.937 0 0 0-1.9-5.162 7.338 7.338 0 0 0-4.35-2.5v-.1a1.25 1.25 0 0 0-2.5 0v.112A7.5 7.5 0 0 0 7.5 11.25v2.5a5.637 5.637 0 0 1-.712 2.5c-.438.85-1.013 1.7-1.475 2.575A2.5 2.5 0 0 0 5.7 21.75a2.5 2.5 0 0 0 1.8.75h3.75a3.75 3.75 0 0 0 7.5 0h3.75a2.5 2.5 0 0 0 1.8-.762 2.5 2.5 0 0 0 .387-2.925ZM15 23.75a1.25 1.25 0 0 1-1.25-1.25h2.5A1.25 1.25 0 0 1 15 23.75ZM7.5 20c.375-.7.975-1.587 1.5-2.625a7.912 7.912 0 0 0 1-3.625v-2.5a5 5 0 0 1 5-5h.5a4.8 4.8 0 0 1 3.25 1.725A5.475 5.475 0 0 1 20 11.512v2.238a7.913 7.913 0 0 0 .988 3.613c.524 1.037 1.125 1.925 1.5 2.625H7.5V20Z" fill="#222221"/></svg>