<svg width="30" height="30" fill="none" xmlns="http://www.w3.org/2000/svg"><path d="M16.25 21.25v-7.5a1.25 1.25 0 0 1 2.5 0v7.5a1.25 1.25 0 0 1-2.5 0ZM12.5 22.5a1.25 1.25 0 0 0 1.25-1.25v-7.5a1.25 1.25 0 0 0-2.5 0v7.5a1.25 1.25 0 0 0 1.25 1.25ZM26.25 8.75A1.25 1.25 0 0 1 25 10h-1.25v13.675a3.75 3.75 0 0 1-3.75 3.75H10a3.75 3.75 0 0 1-3.75-3.75V10H5a1.25 1.25 0 0 1 0-2.5h5V6.25a3.75 3.75 0 0 1 3.75-3.75h2.5A3.75 3.75 0 0 1 20 6.25V7.5h5a1.25 1.25 0 0 1 1.25 1.25ZM12.5 7.5h5V6.25A1.25 1.25 0 0 0 16.25 5h-2.5a1.25 1.25 0 0 0-1.25 1.25V7.5Zm8.75 2.5H8.75v13.675a1.25 1.25 0 0 0 1.25 1.25h10a1.25 1.25 0 0 0 1.25-1.25V10Z" fill="#222221"/></svg>