<svg width="31" height="30" fill="none" xmlns="http://www.w3.org/2000/svg"><path d="M7.867 16.25a1.563 1.563 0 1 1 3.126 0 1.563 1.563 0 0 1-3.126 0Zm1.563 6.563a1.562 1.562 0 1 0 0-3.125 1.562 1.562 0 0 0 0 3.125Zm6.25-5a1.562 1.562 0 1 0 0-3.125 1.562 1.562 0 0 0 0 3.124Zm0 5a1.562 1.562 0 1 0 0-3.125 1.562 1.562 0 0 0 0 3.125Zm6.25-5a1.562 1.562 0 1 0 0-3.125 1.562 1.562 0 0 0 0 3.124Zm6.25-9.063v15a3.75 3.75 0 0 1-3.75 3.75H6.93a3.75 3.75 0 0 1-3.75-3.75v-15A3.75 3.75 0 0 1 6.93 5h1.25V3.75a1.25 1.25 0 1 1 2.5 0V5h10V3.75a1.25 1.25 0 0 1 2.5 0V5h1.25a3.75 3.75 0 0 1 3.75 3.75Zm-22.5 0V10h20V8.75a1.25 1.25 0 0 0-1.25-1.25H6.93a1.25 1.25 0 0 0-1.25 1.25Zm20 3.75h-20v11.25A1.25 1.25 0 0 0 6.93 25h17.5a1.25 1.25 0 0 0 1.25-1.25V12.5Z" fill="#222221"/></svg>