<svg width="18" height="18" fill="none" xmlns="http://www.w3.org/2000/svg"><path d="M17.1 13.31a3 3 0 0 0-.88-2.1l-.26-.27a4.54 4.54 0 0 0-3.21-1.33 4.63 4.63 0 0 0-2 .47l-.83.42A7.47 7.47 0 0 1 8 9.13a7.13 7.13 0 0 1-1.36-1.91l.41-.83a4.52 4.52 0 0 0-.85-5.23L5.94.9A3 3 0 0 0 3.79 0H3a3 3 0 0 0-3 3v.07a17.54 17.54 0 0 0 .76 4.76 13 13 0 0 0 3.15 5.32 12.81 12.81 0 0 0 5.31 3.16c1.546.48 3.152.739 4.77.77h.11a3 3 0 0 0 3-3v-.81.04Zm-3 1.8a15.238 15.238 0 0 1-4.22-.67 11 11 0 0 1-4.5-2.67 10.87 10.87 0 0 1-2.65-4.5A15.24 15.24 0 0 1 2 3.05V3a1 1 0 0 1 1-1h.79a1 1 0 0 1 .71.3l.26.26a2.52 2.52 0 0 1 .47 2.92L4.6 6.74a1 1 0 0 0 0 .83 9.23 9.23 0 0 0 2 3 9 9 0 0 0 3 2 1 1 0 0 0 .82 0l1.26-.63a2.54 2.54 0 0 1 2.91.48l.27.27a1 1 0 0 1 .29.7v.79a1 1 0 0 1-1.05.93Z" fill="#222221"/></svg>