<svg xmlns="http://www.w3.org/2000/svg" width="31" height="30" fill="none" viewBox="0 0 31 30">
  <path fill="#54D6B8" d="M15.68 10a6.25 6.25 0 1 0 0 12.5 6.25 6.25 0 0 0 0-12.5Zm0 10a3.75 3.75 0 1 1 0-7.501 3.75 3.75 0 0 1 0 7.501ZM27.105 7.625a3.662 3.662 0 0 0-2.675-1.163h-1.425a1.25 1.25 0 0 1-.913-.4l-1.75-1.85a1.249 1.249 0 0 0-.912-.387h-7.5a1.25 1.25 0 0 0-.913.387l-1.75 1.85a1.25 1.25 0 0 1-.912.4H6.93a3.663 3.663 0 0 0-2.675 1.163A3.925 3.925 0 0 0 3.18 10.35v13.188a3.925 3.925 0 0 0 1.075 2.712 3.614 3.614 0 0 0 2.675 1.175h17.5a3.613 3.613 0 0 0 2.675-1.175 3.925 3.925 0 0 0 1.075-2.712V10.35a3.925 3.925 0 0 0-1.075-2.725ZM25.68 23.538a1.45 1.45 0 0 1-.388 1.012 1.163 1.163 0 0 1-.862.375H6.93a1.163 1.163 0 0 1-.863-.375 1.45 1.45 0 0 1-.387-1.012V10.35a1.45 1.45 0 0 1 .387-1.013 1.162 1.162 0 0 1 .863-.375h1.425a3.75 3.75 0 0 0 2.725-1.175l1.387-1.462h6.425l1.388 1.462.912-.862-.912.862a3.75 3.75 0 0 0 2.725 1.175h1.425a1.162 1.162 0 0 1 .862.375c.255.275.394.638.388 1.013v13.188Z"/>
</svg>
