<svg width="14" height="23" viewBox="0 0 14 23" fill="none" xmlns="http://www.w3.org/2000/svg">
<path fill-rule="evenodd" clip-rule="evenodd" d="M5.51661 21.5009C5.51661 22.0474 5.95797 22.4913 6.50442 22.4943C7.05524 22.4974 7.50341 22.0518 7.50341 21.5009L7.50341 16.9626H9.8322C10.3284 16.9626 10.7306 16.5604 10.7306 16.0642C10.7306 15.568 10.3284 15.1657 9.8322 15.1657H7.50341L7.50341 12.9377C8.14242 12.8703 8.77616 12.6906 9.40461 12.3984C10.0331 12.1063 10.6089 11.7015 11.1322 11.1841C12.4285 9.90228 13.0817 8.3685 13.0917 6.58274C13.1018 4.79698 12.4659 3.25595 11.1841 1.95964C9.90228 0.663335 8.3685 0.0101604 6.58274 0.000117119C4.79698 -0.00992612 3.25595 0.625956 1.95964 1.90776C0.663336 3.18957 0.0101605 4.72335 0.000117123 6.50911C-0.00992628 8.29487 0.625955 9.8359 1.90776 11.1322C2.42519 11.6555 2.99646 12.0667 3.62159 12.3659C4.24672 12.6651 4.87839 12.8519 5.51661 12.9265V15.1657H3.36342C2.86722 15.1657 2.46498 15.568 2.46498 16.0642C2.46498 16.5604 2.86722 16.9626 3.36342 16.9626H5.51661L5.51661 21.5009ZM6.52048 11.0695C5.27873 11.0625 4.21687 10.613 3.33489 9.72104C2.45291 8.82909 2.01541 7.76224 2.0224 6.52048C2.02938 5.27873 2.47885 4.21687 3.37081 3.33489C4.26276 2.45291 5.32961 2.01542 6.57137 2.0224C7.81312 2.02938 8.87498 2.47885 9.75696 3.37081C10.6389 4.26276 11.0764 5.32961 11.0695 6.57137C11.0625 7.81312 10.613 8.87498 9.72104 9.75696C8.82909 10.6389 7.76224 11.0764 6.52048 11.0695Z" fill="white"/>
</svg>
