<svg xmlns="http://www.w3.org/2000/svg" width="30" height="30" fill="none" viewBox="0 0 30 30">
  <path fill="#54D6B8" d="M27.5 15a12.5 12.5 0 1 1-25 0 12.5 12.5 0 0 1 25 0ZM25 15a10 10 0 1 0-20 0 10 10 0 0 0 20 0Z"/>
  <path fill="#54D6B8" d="M16.252 17.81h-2.178c.007-.605.059-1.113.156-1.523.098-.417.26-.794.489-1.133.234-.338.543-.696.928-1.074.299-.286.57-.557.81-.81.24-.26.433-.534.576-.82.143-.294.215-.629.215-1.007 0-.41-.068-.758-.205-1.045a1.442 1.442 0 0 0-.605-.654c-.26-.15-.586-.224-.977-.224-.326 0-.632.065-.918.195a1.552 1.552 0 0 0-.693.586c-.176.26-.27.605-.284 1.035h-2.353c.013-.82.208-1.51.586-2.07a3.48 3.48 0 0 1 1.523-1.26c.638-.28 1.351-.42 2.139-.42.872 0 1.618.15 2.236.45.619.292 1.09.722 1.416 1.288.332.56.498 1.237.498 2.031a3.54 3.54 0 0 1-.341 1.563 5.684 5.684 0 0 1-.89 1.299 22.56 22.56 0 0 1-1.18 1.191c-.365.332-.613.694-.743 1.084a4.3 4.3 0 0 0-.205 1.319Zm-2.373 3.047c0-.351.12-.647.361-.888.241-.248.57-.371.987-.371.416 0 .745.123.986.37.24.242.361.538.361.89 0 .351-.12.65-.361.898-.241.24-.57.361-.986.361-.417 0-.746-.12-.987-.361a1.24 1.24 0 0 1-.361-.899Z"/>
</svg>
