<svg width="30" height="30" fill="none" xmlns="http://www.w3.org/2000/svg"><path d="M8.891 25.594a.2.2 0 0 1-.298-.216l1.363-5.892a1.8 1.8 0 0 0-.574-1.766l-4.573-3.964a.2.2 0 0 1 .114-.35l6.046-.526a1.8 1.8 0 0 0 1.502-1.092l2.345-5.547a.2.2 0 0 1 .368 0l2.345 5.547.736-.312-.736.312a1.8 1.8 0 0 0 1.502 1.092l6.046.525a.2.2 0 0 1 .114.35l-4.573 3.965a1.8 1.8 0 0 0-.574 1.766l1.363 5.892a.2.2 0 0 1-.298.216l-5.18-3.124-.412.685.413-.685a1.8 1.8 0 0 0-1.86 0l-5.179 3.124Z" stroke="#fff" stroke-width="1.6"/></svg>