<svg width="27" height="24" fill="none" xmlns="http://www.w3.org/2000/svg"><path d="M13.594 2A11.04 11.04 0 0 0 7.71 3.685c-1.741 1.1-3.099 2.66-3.9 4.488a9.483 9.483 0 0 0-.603 5.778c.409 1.94 1.417 3.721 2.898 5.12a10.798 10.798 0 0 0 5.423 2.737c2.054.386 4.183.188 6.118-.57 1.936-.756 3.59-2.038 4.753-3.682A9.608 9.608 0 0 0 24.184 12a9.519 9.519 0 0 0-.806-3.827 9.984 9.984 0 0 0-2.296-3.244 10.653 10.653 0 0 0-3.436-2.168A11.135 11.135 0 0 0 13.594 2Zm0 18a8.833 8.833 0 0 1-4.707-1.348 8.118 8.118 0 0 1-3.12-3.59 7.587 7.587 0 0 1-.483-4.623 7.872 7.872 0 0 1 2.319-4.096 8.638 8.638 0 0 1 4.338-2.19 8.938 8.938 0 0 1 4.895.456 8.386 8.386 0 0 1 3.802 2.946A7.687 7.687 0 0 1 22.066 12c0 2.122-.893 4.157-2.482 5.657-1.588 1.5-3.743 2.343-5.99 2.343Zm2.87-6.71c.2.188.311.444.311.71a.977.977 0 0 1-.311.71c-.2.188-.47.294-.752.294-.282 0-.553-.106-.752-.294l-2.118-2a.998.998 0 0 1-.229-.326.951.951 0 0 1-.078-.384V9a.97.97 0 0 1 .31-.707c.198-.188.468-.293.749-.293.28 0 .55.105.749.293.198.187.31.442.31.707v2.59l1.81 1.7Z" fill="#fff"/></svg>